<svg width="12" height="12" viewBox="0 0 12 12" fill="none" xmlns="http://www.w3.org/2000/svg">
<path d="M10.8252 8.8328L7.9788 5.988L10.8236 3.1432C11.3708 2.5976 11.3708 1.7096 10.8236 1.164C10.2764 0.613601 9.3916 0.615201 8.8444 1.1624L5.998 4.0072L3.1516 1.1592C2.6044 0.612001 1.718 0.615201 1.1708 1.1592C0.625197 1.7064 0.625197 2.5944 1.1708 3.14L4.0188 5.988L1.1772 8.828C0.629997 9.3752 0.629997 10.2632 1.1772 10.8072C1.4508 11.0824 1.8076 11.2184 2.166 11.2184C2.526 11.2184 2.8828 11.0824 3.1564 10.8088L5.998 7.9672L8.846 10.8136C9.1196 11.0872 9.4764 11.2232 9.8348 11.2232C10.1932 11.2232 10.5516 11.0856 10.8252 10.8136C11.3724 10.2664 11.3724 9.38 10.8252 8.8328Z" fill="white"/>
</svg>
