<svg width="16" height="16" viewBox="0 0 16 16" fill="none" xmlns="http://www.w3.org/2000/svg">
<g clip-path="url(#clip0_511_15)">
<path d="M10.606 8.082L16 11.492V4.528L10.606 8.082Z" fill="#029F59"/>
<path d="M0 4.528V11.492L5.394 8.082L0 4.528Z" fill="#029F59"/>
<path d="M15 2.5H0.999998C0.500998 2.5 0.104999 2.872 0.0299988 3.351L7.99999 8.602L15.97 3.351C15.895 2.872 15.499 2.5 15 2.5Z" fill="#029F59"/>
<path d="M9.69 8.68606L8.275 9.61806C8.191 9.67306 8.096 9.70006 8 9.70006C7.904 9.70006 7.809 9.67306 7.725 9.61806L6.31 8.68506L0.0319958 12.6561C0.108996 13.1311 0.502996 13.5001 0.999996 13.5001H15C15.497 13.5001 15.891 13.1311 15.968 12.6561L9.69 8.68606Z" fill="#029F59"/>
</g>
<defs>
<clipPath id="clip0_511_15">
<rect width="16" height="16" fill="white"/>
</clipPath>
</defs>
</svg>
