<svg width="16" height="16" viewBox="0 0 16 16" fill="none" xmlns="http://www.w3.org/2000/svg">
<g clip-path="url(#clip0_6_1749)">
<path d="M10.6061 8.08195L16.0001 11.492V4.52795L10.6061 8.08195Z" fill="white"/>
<path d="M0 4.52795V11.492L5.394 8.08195L0 4.52795Z" fill="white"/>
<path d="M15 2.5H1.00003C0.501029 2.5 0.105029 2.872 0.0300293 3.351L8.00002 8.602L15.97 3.351C15.895 2.872 15.499 2.5 15 2.5Z" fill="white"/>
<path d="M9.68999 8.68606L8.27499 9.61806C8.19099 9.67306 8.09599 9.70006 7.99999 9.70006C7.90399 9.70006 7.80899 9.67306 7.72499 9.61806L6.30999 8.68506L0.0319824 12.6561C0.108982 13.1311 0.502983 13.5001 0.999983 13.5001H15C15.497 13.5001 15.891 13.1311 15.968 12.6561L9.68999 8.68606Z" fill="white"/>
</g>
<defs>
<clipPath id="clip0_6_1749">
<rect width="16" height="16" fill="white"/>
</clipPath>
</defs>
</svg>
