<svg width="20" height="20" viewBox="0 0 20 20" fill="none" xmlns="http://www.w3.org/2000/svg">
<path d="M19.66 8.24996L10.66 0.249955C10.4775 0.0896359 10.2429 0.0012207 10 0.0012207C9.75709 0.0012207 9.52249 0.0896359 9.34 0.249955L0.34 8.24996C0.187036 8.38527 0.0791676 8.56417 0.030899 8.76261C-0.0173696 8.96104 -0.00372454 9.1695 0.0699997 9.35995C0.142518 9.54789 0.270104 9.70954 0.436049 9.82374C0.601993 9.93794 0.798559 9.99936 1 9.99996H2V19C2 19.2652 2.10536 19.5195 2.29289 19.7071C2.48043 19.8946 2.73478 20 3 20H17C17.2652 20 17.5196 19.8946 17.7071 19.7071C17.8946 19.5195 18 19.2652 18 19V9.99996H19C19.2014 9.99936 19.398 9.93794 19.564 9.82374C19.7299 9.70954 19.8575 9.54789 19.93 9.35995C20.0037 9.1695 20.0174 8.96104 19.9691 8.76261C19.9208 8.56417 19.813 8.38527 19.66 8.24996ZM11 18H9V15C9 14.7347 9.10536 14.4804 9.29289 14.2928C9.48043 14.1053 9.73478 14 10 14C10.2652 14 10.5196 14.1053 10.7071 14.2928C10.8946 14.4804 11 14.7347 11 15V18ZM16 18H13V15C13 14.2043 12.6839 13.4412 12.1213 12.8786C11.5587 12.316 10.7956 12 10 12C9.20435 12 8.44129 12.316 7.87868 12.8786C7.31607 13.4412 7 14.2043 7 15V18H4V9.99996H16V18ZM3.63 7.99996L10 2.33996L16.37 7.99996H3.63Z" fill="#029F59"/>
</svg>
