<svg width="12" height="16" viewBox="0 0 12 16" fill="none" xmlns="http://www.w3.org/2000/svg">
<path d="M5.99972 0C2.75201 0 0.109497 2.64251 0.109497 5.89056C0.109497 6.73777 0.282903 7.54667 0.624638 8.29499C2.09736 11.5176 4.92097 14.9201 5.75149 15.886C5.81371 15.9582 5.90443 15.9998 5.99989 15.9998C6.09535 15.9998 6.18607 15.9582 6.24829 15.886C7.07848 14.9203 9.90209 11.518 11.3753 8.29499C11.7172 7.54667 11.8904 6.73777 11.8904 5.89056C11.8901 2.64251 9.2476 0 5.99972 0ZM5.99972 8.95013C4.31266 8.95013 2.93999 7.57746 2.93999 5.89039C2.93999 4.20317 4.31266 2.83049 5.99972 2.83049C7.68679 2.83049 9.05946 4.20317 9.05946 5.89039C9.05962 7.57746 7.68695 8.95013 5.99972 8.95013Z" fill="white"/>
</svg>
