<svg width="16" height="16" viewBox="0 0 16 16" fill="none" xmlns="http://www.w3.org/2000/svg">
<path d="M7.99975 0C4.75204 0 2.10953 2.64251 2.10953 5.89056C2.10953 6.73777 2.28293 7.54667 2.62467 8.29499C4.09739 11.5176 6.921 14.9201 7.75152 15.886C7.81374 15.9582 7.90445 15.9998 7.99992 15.9998C8.09538 15.9998 8.1861 15.9582 8.24832 15.886C9.0785 14.9203 11.9021 11.518 13.3753 8.29499C13.7172 7.54667 13.8905 6.73777 13.8905 5.89056C13.8901 2.64251 11.2476 0 7.99975 0ZM7.99975 8.95013C6.31269 8.95013 4.94002 7.57746 4.94002 5.89039C4.94002 4.20317 6.31269 2.83049 7.99975 2.83049C9.68682 2.83049 11.0595 4.20317 11.0595 5.89039C11.0597 7.57746 9.68698 8.95013 7.99975 8.95013Z" fill="#029F59"/>
</svg>
