<svg width="16" height="16" fill="none" xmlns="http://www.w3.org/2000/svg"><g clip-path="url(#a)" fill="#fff"><path d="M12.164 10.585c-.522-.516-1.175-.516-1.694 0-.397.393-.793.785-1.182 1.185-.107.11-.197.133-.327.06-.256-.14-.529-.253-.775-.406-1.15-.723-2.111-1.652-2.964-2.697-.423-.52-.799-1.076-1.062-1.702-.053-.126-.043-.21.06-.313.396-.382.783-.775 1.172-1.168.543-.546.543-1.186-.003-1.735-.31-.313-.62-.62-.93-.932-.319-.32-.635-.643-.958-.96-.523-.509-1.175-.509-1.695.004-.4.393-.782.796-1.188 1.182-.377.356-.566.793-.606 1.302-.064.83.14 1.612.426 2.374.586 1.578 1.478 2.98 2.56 4.265a15.844 15.844 0 0 0 5.248 4.105c.918.447 1.87.79 2.906.846.713.04 1.332-.14 1.828-.696.34-.38.723-.726 1.082-1.088.533-.54.536-1.192.007-1.725-.633-.636-1.269-1.269-1.905-1.901ZM11.528 7.931l1.229-.21a5.49 5.49 0 0 0-1.535-2.963 5.462 5.462 0 0 0-3.13-1.562L7.92 4.432c.922.13 1.762.546 2.424 1.208a4.237 4.237 0 0 1 1.185 2.291ZM13.45 2.59A9.06 9.06 0 0 0 8.256 0l-.174 1.235a7.855 7.855 0 0 1 4.489 2.238 7.849 7.849 0 0 1 2.2 4.245L16 7.508a9.125 9.125 0 0 0-2.55-4.918Z"/></g><defs><clipPath id="a"><path fill="#fff" d="M0 0h16v16H0z"/></clipPath></defs></svg>
