<svg width="16" height="16" viewBox="0 0 16 16" fill="none" xmlns="http://www.w3.org/2000/svg">
<g clip-path="url(#clip0_6_1741)">
<path d="M12.1644 10.5847C11.6416 10.0686 10.9891 10.0686 10.4697 10.5847C10.0734 10.9776 9.67722 11.3704 9.28767 11.77C9.18112 11.8799 9.09122 11.9032 8.96137 11.8299C8.705 11.6901 8.43198 11.5769 8.18559 11.4237C7.0369 10.7012 6.07467 9.77227 5.22231 8.72679C4.79946 8.20739 4.42322 7.65135 4.16019 7.0254C4.10692 6.89888 4.11691 6.81564 4.22012 6.71243C4.61634 6.32953 5.00256 5.93665 5.39212 5.54376C5.93483 4.99772 5.93483 4.35845 5.38879 3.80908C5.07914 3.4961 4.76949 3.18978 4.45985 2.87681C4.14021 2.55717 3.82391 2.23421 3.50094 1.9179C2.97821 1.40849 2.32562 1.40849 1.80621 1.92123C1.40667 2.31412 1.02377 2.71699 0.61757 3.10322C0.241333 3.45948 0.0515499 3.89564 0.0115955 4.40506C-0.0516656 5.23412 0.151436 6.01656 0.437775 6.77902C1.02377 8.35722 1.91609 9.75895 2.99818 11.0441C4.45985 12.7822 6.20452 14.1573 8.24552 15.1495C9.16447 15.5956 10.1167 15.9386 11.1522 15.9952C11.8647 16.0351 12.484 15.8553 12.9801 15.2993C13.3197 14.9197 13.7026 14.5734 14.0622 14.2105C14.5949 13.6711 14.5983 13.0186 14.0689 12.4858C13.4363 11.8499 12.8003 11.2173 12.1644 10.5847Z" fill="white"/>
<path d="M11.5284 7.931L12.757 7.72124C12.5639 6.59253 12.0312 5.57037 11.2221 4.75796C10.3664 3.90227 9.2843 3.36289 8.09232 3.19641L7.91919 4.43167C8.84147 4.56152 9.68051 4.97771 10.3431 5.64029C10.969 6.26624 11.3786 7.05867 11.5284 7.931Z" fill="white"/>
<path d="M13.4496 2.59037C12.0312 1.17199 10.2366 0.276351 8.25553 0L8.0824 1.23526C9.79378 1.47498 11.3453 2.25076 12.5706 3.4727C13.7326 4.63471 14.4951 6.10303 14.7714 7.71785L16 7.50809C15.6771 5.63689 14.7947 3.93883 13.4496 2.59037Z" fill="white"/>
</g>
<defs>
<clipPath id="clip0_6_1741">
<rect width="16" height="16.0004" fill="white"/>
</clipPath>
</defs>
</svg>
